#!OML:ASF H:\Terrain\Patient Classification 1\Walking\steve\steve.ASF
:FULLY-SPECIFIED
:DEGREES
142
root 8.17153 16.0924 -8.55803 6.19122 -5.14916 3.16628
lowerback 2.64716 2.45211 -2.62854
upperback -2.80071 3.07443 -1.98961
thorax -4.40456 1.57764 -0.782785
lowerneck -11.3042 -1.0044 -3.52354
upperneck 12.9085 -1.69517 6.37111
head 5.8439 -0.516739 2.45302
rclavicle 2.56059e-014 -7.55382e-015
rhumerus -46.79 -11.4997 -82.8352
rradius 36.3508
rwrist -6.76973
rhand -21.6302 -38.9254
rfingers 7.12502
rthumb 4.76587 -68.8518
lclavicle 2.56059e-014 -7.55382e-015
lhumerus -45.4101 28.9087 63.2307
lradius 12.6151
lwrist -15.5145
lhand -22.4716 -15.2745
lfingers 7.12502
lthumb 3.95333 14.6686
rfemur -27.4383 0.47465 19.4875
rtibia 76.7559
rfoot -2.47492 0.0387158
rtoes -12.8046
lfemur -21.0244 -0.497663 -26.9428
ltibia 31.3829
lfoot -16.1583 -0.914893
ltoes 1.24484
143
root 8.18295 16.0975 -8.30946 6.10677 -4.93423 3.39503
lowerback 2.5989 2.25413 -2.81437
upperback -2.69257 2.8095 -1.90358
thorax -4.27601 1.45188 -0.567378
lowerneck -11.5213 -0.857789 -3.3492
upperneck 13.1766 -1.48322 6.03255
head 5.95051 -0.424642 2.33671
rclavicle -6.3549e-015 7.95139e-016
rhumerus -47.4519 -12.7271 -81.4684
rradius 33.7369
rwrist -4.61157
rhand -21.2264 -38.4924
rfingers 7.12502
rthumb 5.15576 -68.4097
lclavicle -6.3549e-015 7.95139e-016
lhumerus -43.015 27.6172 66.2767
lradius 13.4118
lwrist -12.7874
lhand -22.5269 -14.1599
lfingers 7.12502
lthumb 3.89994 15.7842
rfemur -29.1402 0.00762576 19.5293
rtibia 76.4442
rfoot -3.96075 0.894028
rtoes -13.4539
lfemur -19.7359 -0.566881 -27.3118
ltibia 30.9266
lfoot -16.5262 -1.51674
ltoes 3.74186
144
root 8.19352 16.1008 -8.06147 5.96831 -4.79538 3.66564
lowerback 2.57112 2.19078 -3.01235
upperback -2.58918 2.72228 -1.84304
thorax -4.16431 1.41405 -0.384772
lowerneck -11.5137 -0.866683 -3.36534
upperneck 13.3108 -1.46208 5.79443
head 5.98869 -0.432357 2.26636
rclavicle -1.50424e-014 -8.34896e-015
rhumerus -48.2376 -14.3227 -79.715
rradius 31.1795
rwrist -2.34788
rhand -21.0198 -39.2584
rfingers 7.12502
rthumb 5.35527 -69.1708
lclavicle -1.50424e-014 -8.34896e-015
lhumerus -40.504 25.1944 69.8504
lradius 14.4932
lwrist -9.37045
lhand -22.6734 -12.9883
lfingers 7.12502
lthumb 3.75849 16.9583
rfemur -30.7832 -0.222704 19.5026
rtibia 75.8867
rfoot -5.38683 1.68986
rtoes -13.5383
lfemur -18.288 -0.714796 -27.7663
ltibia 30.367
lfoot -17.0868 -1.14626
ltoes 1.98082
145
root 8.20492 16.124 -7.80511 5.78964 -4.59916 3.69259
lowerback 2.62963 2.16028 -2.98877
upperback -2.49662 2.68837 -1.69231
thorax -4.10659 1.3978 -0.240112
lowerneck -11.059 -0.941324 -3.72513
upperneck 12.8995 -1.53005 6.03621
head 5.78887 -0.475591 2.39324
rclavicle 3.14328e-015 1.98785e-016
rhumerus -49.1854 -15.9175 -77.7198
rradius 28.6701
rwrist -0.130935
rhand -19.4254 -41.0493
rfingers 7.12502
rthumb 6.89451 -70.917
lclavicle 3.14328e-015 1.98785e-016
lhumerus -38.1596 22.5455 73.1479
lradius 15.7906
lwrist -6.07535
lhand -22.624 -12.6028
lfingers 7.12502
lthumb 3.80618 17.343
rfemur -32.2337 -0.366749 19.641
rtibia 75.245
rfoot -6.83934 2.65526
rtoes -10.9359
lfemur -17.0728 -0.856706 -27.9783
ltibia 30.4791
lfoot -18.0237 -0.668729
ltoes -1.86898
146
root 8.21488 16.1339 -7.54987 5.70362 -4.36921 3.76666
lowerback 2.58099 2.06642 -3.02007
upperback -2.38506 2.57142 -1.56783
thorax -3.96784 1.34061 -0.0817068
lowerneck -10.9931 -0.96657 -3.68233
upperneck 12.8146 -1.53682 5.81359
head 5.7494 -0.495062 2.31409
rclavicle 1.29031e-014 1.85118e-014
rhumerus -50.069 -17.7856 -75.2544
rradius 26.1043
rwrist 2.95287
rhand -17.7186 -40.8659
rfingers 7.12502
rthumb 8.54195 -70.6731
lclavicle 1.29031e-014 1.85118e-014
lhumerus -35.9611 19.9295 75.9876
lradius 17.0611
lwrist -2.85268
lhand -23.0682 -12.8495
lfingers 7.12502
lthumb 3.37724 17.1035
rfemur -33.6714 -0.546873 19.7524
rtibia 74.1589
rfoot -8.31354 3.30502
rtoes -10.974
lfemur -15.6903 -1.05552 -28.2106
ltibia 29.9721
lfoot -18.6862 -0.717489
ltoes -2.00418
147
root 8.23343 16.0054 -7.32519 5.60417 -4.14358 3.90769
lowerback 2.6566 1.97424 -3.1513
upperback -2.35917 2.44268 -1.48774
thorax -3.99021 1.28137 0.0796662
lowerneck -11.4474 -0.999311 -3.06902
upperneck 13.4342 -1.55464 4.83904
head 6.01142 -0.535909 1.90584
rclavicle 3.72372e-015 -1.15295e-014
rhumerus -51.386 -20.2734 -71.9776
rradius 23.7067
rwrist 7.34838
rhand -20.4081 -38.3719
rfingers 7.12502
rthumb 5.94585 -68.2685
lclavicle 3.72372e-015 -1.15295e-014
lhumerus -34.1585 17.0524 78.4576
lradius 18.4459
lwrist 0.418566
lhand -23.7553 -12.8477
lfingers 7.12502
lthumb 2.71372 17.1148
rfemur -33.958 -3.24184 21.564
rtibia 73.5866
rfoot -10.0503 -7.11188
rtoes -60.4826
lfemur -14.5723 -0.98034 -28.6112
ltibia 29.6362
lfoot -19.4158 -0.782426
ltoes -2.59621
